# xmcd CD database file
#
# Track frame offsets:
#	150
#	27491
#	61838
#	90629
#	119180
#	139297
#	178528
#	212503
#	232766
#
# Disc length: 3493 seconds
#
# Revision: 1
# Processed by: cddbd v1.5PL3 Copyright (c) Steve Scherf et al.
# Submitted via: CDex 1.51
#
DISCID=7a0da309
DTITLE=Russell Gunn - Blue on the DL
DYEAR=1900
DGENRE=Jazz
TTITLE0=Sir John
TTITLE1=Minor Mood
TTITLE2=Cheryl
TTITLE3=Blues on the DL
TTITLE4=Brian's Bounce
TTITLE5=Kelly Blue
TTITLE6=J.D.'s Revenge
TTITLE7=No Blues
TTITLE8=When it comes
EXTD=
EXTT0=
EXTT1=
EXTT2=
EXTT3=
EXTT4=
EXTT5=
EXTT6=
EXTT7=
EXTT8=
PLAYORDER=
